<?xml version="1.0" encoding="utf-8"?>
<!-- Generator: Adobe Illustrator 22.0.1, SVG Export Plug-In . SVG Version: 6.00 Build 0)  -->
<svg version="1.1" id="Camada_1" xmlns="http://www.w3.org/2000/svg" xmlns:xlink="http://www.w3.org/1999/xlink" x="0px" y="0px"
	 viewBox="0 0 60 60" style="enable-background:new 0 0 60 60;" xml:space="preserve">
<style type="text/css">
	.st0{fill:#B3B3B3;}
</style>
<path class="st0" d="M31.9,25.5l0.6,0.7c0,0,7.7-10.5,18.4-5.4c0,0,4.5,3,4.9,7.8s-2.5,7.7-2.5,7.7S49.1,41,43.8,39
	c0,0-5.5-1.3-10.8-8.9c0,0-9.8-14.5-18.3-14c0,0-9.7-0.8-13.3,8.5c0,0-4.1,11.4,7,17c0,0,9.3,4.9,18.8-7.2L26.5,34
	c0,0-4.7,5.6-10,6.4c0,0-5.7,1.5-9.7-2.4c0,0-5.6-4.3-2.7-11.7c0,0,4.2-8.5,11.5-5.6c0,0,8.2,2.8,12,11.2c0,0,6.4,10,16.1,12.1
	c0,0,14.6,2,15.5-14.6c0,0,0-10.1-10.5-11.7C48.5,17.6,38.3,15.9,31.9,25.5z"/>
</svg>
