<?xml version="1.0" encoding="utf-8"?>
<!-- Generator: Adobe Illustrator 21.1.0, SVG Export Plug-In . SVG Version: 6.00 Build 0)  -->
<svg version="1.1" id="Camada_1" xmlns="http://www.w3.org/2000/svg" xmlns:xlink="http://www.w3.org/1999/xlink" x="0px" y="0px"
	 viewBox="0 0 60 60" style="enable-background:new 0 0 60 60;" xml:space="preserve">
<style type="text/css">
	.st0{fill:#20AEC6;}
</style>
<g>
	<circle class="st0" cx="29.9" cy="30" r="5.2"/>
	<path class="st0" d="M40,24.2C32.3,10.1,21.3,1.3,15.6,4.5c-5.7,3.2-4.1,17.1,3.7,31.2C27.1,49.7,38,58.5,43.7,55.4
		C49.4,52.2,47.8,38.2,40,24.2z M42.2,52.7c-4.9,2.7-14.5-5.3-21.4-17.9c-6.9-12.6-8.6-25-3.7-27.7C22,4.4,31.6,12.4,38.5,25
		S47.1,50,42.2,52.7z"/>
	<path class="st0" d="M40,35.8c7.9-14,9.7-27.9,4.1-31.1c-5.7-3.2-16.7,5.5-24.7,19.4C11.4,38,9.6,52,15.3,55.2
		C21,58.4,32,49.7,40,35.8z M16.8,52.5c-4.9-2.8-3.1-15.1,4-27.6C27.9,12.4,37.6,4.5,42.5,7.3c4.9,2.8,3.1,15.1-4,27.6
		S21.7,55.3,16.8,52.5z"/>
	<path class="st0" d="M29.5,41.8c16.1,0.2,29.2-4.9,29.3-11.4c0.1-6.5-12.8-12-28.9-12.3C13.8,17.8,0.7,22.9,0.6,29.5
		C0.5,36,13.4,41.5,29.5,41.8z M3.7,29.5c0.1-5.6,11.8-10,26.2-9.7c14.4,0.2,25.9,4.9,25.9,10.5c-0.1,5.6-11.8,10-26.2,9.7
		C15.2,39.8,3.6,35.1,3.7,29.5z"/>
</g>
</svg>
