<?xml version="1.0" encoding="utf-8"?>
<!-- Generator: Adobe Illustrator 22.0.1, SVG Export Plug-In . SVG Version: 6.00 Build 0)  -->
<svg version="1.1" id="Camada_1" xmlns="http://www.w3.org/2000/svg" xmlns:xlink="http://www.w3.org/1999/xlink" x="0px" y="0px"
	 viewBox="0 0 60 60" style="enable-background:new 0 0 60 60;" xml:space="preserve">
<style type="text/css">
	.st0{fill:#B3B3B3;}
</style>
<g>
	<path class="st0" d="M55.3,35.6C47.6,19.4,30,21.4,30,21.4c-0.6-1.2-1.9-2.1-3.4-2.1c-2.1,0-3.8,1.7-3.8,3.7s1.7,3.7,3.8,3.7
		c1.6,0,2.9-0.9,3.5-2.2l0,0c11.2-0.2,17.2,5.7,17.2,5.7c11.1,9.6,3.4,16.6,3.4,16.6c-5.2,5.6-14,1.8-14,1.8l-2.9,2.5
		c6.1,3.1,12.4,1.4,12.4,1.4C59.7,49.3,55.3,35.6,55.3,35.6z"/>
	<path class="st0" d="M14.9,52.7C33.2,54,40,38.1,40,38c1.4,0.1,2.8-0.6,3.5-1.9c1-1.8,0.4-4-1.5-5c-1.8-1-4.1-0.4-5.1,1.4
		c-0.8,1.3-0.6,2.9,0.3,4.1l0,0c-5.3,9.6-13.5,11.9-13.5,11.9c-14,4.8-16.5-5.1-16.5-5.1c-2.4-7.2,5.2-12.8,5.2-12.8l-0.8-3.7
		c-5.8,3.7-7.3,9.9-7.3,9.9C0.5,49.8,14.9,52.7,14.9,52.7z"/>
	<path class="st0" d="M19.8,9.1c-11.2,14.2-1.3,28.5-1.3,28.5c-0.8,1.1-1,2.6-0.3,3.9c1,1.8,3.2,2.5,5.1,1.6s2.6-3.2,1.6-5
		c-0.7-1.4-2.2-2.1-3.6-2l0,0c-5.3-9.6-2.7-17.6-2.7-17.6C22.2,4.5,32.1,8,32.1,8c7.5,2,8,11.3,8,11.3l3.6,1.3
		c0-6.8-4.4-11.5-4.4-11.5C30.2-1,19.8,9.1,19.8,9.1z"/>
</g>
</svg>
