<?xml version="1.0" encoding="utf-8"?>
<!-- Generator: Adobe Illustrator 21.1.0, SVG Export Plug-In . SVG Version: 6.00 Build 0)  -->
<svg version="1.1" id="Camada_1" xmlns="http://www.w3.org/2000/svg" xmlns:xlink="http://www.w3.org/1999/xlink" x="0px" y="0px"
	 viewBox="0 0 60 60" style="enable-background:new 0 0 60 60;" xml:space="preserve">
<style type="text/css">
	.st0{fill:#20AEC6;}
</style>
<path class="st0" d="M55.3,7.8L51.8,6l-13.6,7.7v26.4c-0.2,2.1-1.4,4.6-1.4,4.6c0.2,0.1,0.3,0.1,0.4,0.2
	c-11.8-1.2-12.4-12.2-12.4-12.2L24.7,7.8L21.2,6L4.5,15.6L4.4,37.1c-0.3,11.1,7.9,16.2,7.9,16.2c9.1,6.9,18.9,1.5,18.9,1.5l15.1-8.6
	c9.2-5.4,8.9-14,8.9-14L55.3,7.8z M23,53.4c0,0-9.4,0.2-13.6-8.5c0,0-1.6-3.5-1.6-8.3v-19l13.5-7.9v21.6c0,0-0.7,12.5,13.2,16.5
	C34.6,47.8,31.2,53.3,23,53.4z M40.3,44.8c0.1-0.1,0.2-0.1,0.2-0.1l1.3-4.7l-0.1-24.4l10.2-5.7l0.1,22.8
	C50.2,42.2,42.6,44.4,40.3,44.8z"/>
</svg>
